<svg xmlns="http://www.w3.org/2000/svg" viewBox="0 0 223 53" width="223" height="53"><rect x="14" y="9" width="5" height="5" fill="#4ade80"/><rect x="19" y="9" width="5" height="5" fill="#4ade80"/><rect x="24" y="9" width="5" height="5" fill="#4ade80"/><rect x="19" y="14" width="5" height="5" fill="#4ade80"/><rect x="19" y="19" width="5" height="5" fill="#4ade80"/><rect x="19" y="24" width="5" height="5" fill="#4ade80"/><rect x="19" y="29" width="5" height="5" fill="#4ade80"/><rect x="19" y="34" width="5" height="5" fill="#4ade80"/><rect x="14" y="39" width="5" height="5" fill="#4ade80"/><rect x="19" y="39" width="5" height="5" fill="#4ade80"/><rect x="24" y="39" width="5" height="5" fill="#4ade80"/><rect x="39" y="9" width="5" height="5" fill="#4ade80"/><rect x="59" y="9" width="5" height="5" fill="#4ade80"/><rect x="39" y="14" width="5" height="5" fill="#4ade80"/><rect x="44" y="14" width="5" height="5" fill="#4ade80"/><rect x="59" y="14" width="5" height="5" fill="#4ade80"/><rect x="39" y="19" width="5" height="5" fill="#4ade80"/><rect x="49" y="19" width="5" height="5" fill="#4ade80"/><rect x="59" y="19" width="5" height="5" fill="#4ade80"/><rect x="39" y="24" width="5" height="5" fill="#4ade80"/><rect x="54" y="24" width="5" height="5" fill="#4ade80"/><rect x="59" y="24" width="5" height="5" fill="#4ade80"/><rect x="39" y="29" width="5" height="5" fill="#4ade80"/><rect x="59" y="29" width="5" height="5" fill="#4ade80"/><rect x="39" y="34" width="5" height="5" fill="#4ade80"/><rect x="59" y="34" width="5" height="5" fill="#4ade80"/><rect x="39" y="39" width="5" height="5" fill="#4ade80"/><rect x="59" y="39" width="5" height="5" fill="#4ade80"/><rect x="69" y="9" width="5" height="5" fill="#4ade80"/><rect x="74" y="9" width="5" height="5" fill="#4ade80"/><rect x="79" y="9" width="5" height="5" fill="#4ade80"/><rect x="84" y="9" width="5" height="5" fill="#4ade80"/><rect x="89" y="9" width="5" height="5" fill="#4ade80"/><rect x="69" y="14" width="5" height="5" fill="#4ade80"/><rect x="69" y="19" width="5" height="5" fill="#4ade80"/><rect x="69" y="24" width="5" height="5" fill="#4ade80"/><rect x="74" y="24" width="5" height="5" fill="#4ade80"/><rect x="79" y="24" width="5" height="5" fill="#4ade80"/><rect x="84" y="24" width="5" height="5" fill="#4ade80"/><rect x="69" y="29" width="5" height="5" fill="#4ade80"/><rect x="69" y="34" width="5" height="5" fill="#4ade80"/><rect x="69" y="39" width="5" height="5" fill="#4ade80"/><rect x="104" y="9" width="5" height="5" fill="#4ade80"/><rect x="109" y="9" width="5" height="5" fill="#4ade80"/><rect x="114" y="9" width="5" height="5" fill="#4ade80"/><rect x="109" y="14" width="5" height="5" fill="#4ade80"/><rect x="109" y="19" width="5" height="5" fill="#4ade80"/><rect x="109" y="24" width="5" height="5" fill="#4ade80"/><rect x="109" y="29" width="5" height="5" fill="#4ade80"/><rect x="109" y="34" width="5" height="5" fill="#4ade80"/><rect x="104" y="39" width="5" height="5" fill="#4ade80"/><rect x="109" y="39" width="5" height="5" fill="#4ade80"/><rect x="114" y="39" width="5" height="5" fill="#4ade80"/><rect x="129" y="9" width="5" height="5" fill="#4ade80"/><rect x="149" y="9" width="5" height="5" fill="#4ade80"/><rect x="129" y="14" width="5" height="5" fill="#4ade80"/><rect x="134" y="14" width="5" height="5" fill="#4ade80"/><rect x="149" y="14" width="5" height="5" fill="#4ade80"/><rect x="129" y="19" width="5" height="5" fill="#4ade80"/><rect x="139" y="19" width="5" height="5" fill="#4ade80"/><rect x="149" y="19" width="5" height="5" fill="#4ade80"/><rect x="129" y="24" width="5" height="5" fill="#4ade80"/><rect x="144" y="24" width="5" height="5" fill="#4ade80"/><rect x="149" y="24" width="5" height="5" fill="#4ade80"/><rect x="129" y="29" width="5" height="5" fill="#4ade80"/><rect x="149" y="29" width="5" height="5" fill="#4ade80"/><rect x="129" y="34" width="5" height="5" fill="#4ade80"/><rect x="149" y="34" width="5" height="5" fill="#4ade80"/><rect x="129" y="39" width="5" height="5" fill="#4ade80"/><rect x="149" y="39" width="5" height="5" fill="#4ade80"/><rect x="164" y="9" width="5" height="5" fill="#4ade80"/><rect x="169" y="9" width="5" height="5" fill="#4ade80"/><rect x="174" y="9" width="5" height="5" fill="#4ade80"/><rect x="169" y="14" width="5" height="5" fill="#4ade80"/><rect x="169" y="19" width="5" height="5" fill="#4ade80"/><rect x="169" y="24" width="5" height="5" fill="#4ade80"/><rect x="169" y="29" width="5" height="5" fill="#4ade80"/><rect x="169" y="34" width="5" height="5" fill="#4ade80"/><rect x="164" y="39" width="5" height="5" fill="#4ade80"/><rect x="169" y="39" width="5" height="5" fill="#4ade80"/><rect x="174" y="39" width="5" height="5" fill="#4ade80"/><rect x="189" y="9" width="5" height="5" fill="#4ade80"/><rect x="194" y="9" width="5" height="5" fill="#4ade80"/><rect x="199" y="9" width="5" height="5" fill="#4ade80"/><rect x="204" y="9" width="5" height="5" fill="#4ade80"/><rect x="209" y="9" width="5" height="5" fill="#4ade80"/><rect x="189" y="14" width="5" height="5" fill="#4ade80"/><rect x="189" y="19" width="5" height="5" fill="#4ade80"/><rect x="189" y="24" width="5" height="5" fill="#4ade80"/><rect x="194" y="24" width="5" height="5" fill="#4ade80"/><rect x="199" y="24" width="5" height="5" fill="#4ade80"/><rect x="204" y="24" width="5" height="5" fill="#4ade80"/><rect x="189" y="29" width="5" height="5" fill="#4ade80"/><rect x="189" y="34" width="5" height="5" fill="#4ade80"/><rect x="189" y="39" width="5" height="5" fill="#4ade80"/><rect x="194" y="39" width="5" height="5" fill="#4ade80"/><rect x="199" y="39" width="5" height="5" fill="#4ade80"/><rect x="204" y="39" width="5" height="5" fill="#4ade80"/><rect x="209" y="39" width="5" height="5" fill="#4ade80"/></svg>